<svg width="100%" height="100%" version="1.1" viewBox="0 0 132.29 132.29" xmlns="http://www.w3.org/2000/svg">
 <defs>
  <mask id="Mask">
   <g id="spinner" transform="rotate(0 66.146 66.146)">
    <rect width="132.29" height="132.29"/>
    <circle cx="66.146" cy="13.229" r="13.229" fill="#fff"/>
    <path d="m66.146 66.146v-52.917" fill="none" stroke="#fff" stroke-width=".79375"/>
    <circle cx="66.146" cy="66.146" r="2.6458" fill="#fff" stroke="#fff" stroke-width=".79375"/>
   </g>
  </mask>
 </defs>
 <g>
  <circle cx="66.146" cy="66.146" r="66.146" fill-opacity=".15261" fill="#000000" opacity="1"/>
  <g fill="none" font-family="Arial" letter-spacing="0px" stroke="#000000" stroke-width=".26458px" word-spacing="0px">
   <g font-size="13.229px" fill="#000000" text-anchor="middle" style="line-height:125%" xml:space="preserve">
    <text x="92.145" y="24.779905">1</text>
    <text x="112.145" y="44.09449">2</text>
    <text x="119.145" y="70.552826">3</text>
    <text x="112.145" y="97.004692">4</text>
    <text x="92.145" y="116.13841">5</text>
	<text x="66.145" y="123.46949">6</text>
    <text x="40.145" y="116.13841">7</text>
    <text x="20.145" y="97.011154">8</text>
    <text x="13.145" y="70.546364">9</text>
    <text x="20.145" y="44.09449">10</text>
    <text x="40.145" y="24.779905">11</text>
	<text x="66.145" y="17.636156">12</text>
   </g>
  </g>
 </g>
 <g mask="url(#Mask)">
  <circle cx="66.146" cy="66.146" r="66.146" fill="#0075ff" opacity="1"/>
  <g fill="#ffffff" font-family="Arial" letter-spacing="0px" stroke-width=".26458px" word-spacing="0px">
   <g font-size="13.229px" fill="#FFFFFF" text-anchor="middle" style="line-height:125%" xml:space="preserve">
    <text x="92.145" y="24.779905">1</text>
    <text x="112.145" y="44.09449">2</text>
    <text x="119.145" y="70.552826">3</text>
    <text x="112.145" y="97.004692">4</text>
    <text x="92.145" y="116.13841">5</text>
	<text x="66.145" y="123.46949">6</text>
    <text x="40.145" y="116.13841">7</text>
    <text x="20.145" y="97.011154">8</text>
    <text x="13.145" y="70.546364">9</text>
    <text x="20.145" y="44.09449">10</text>
    <text x="40.145" y="24.779905">11</text>
	<text x="66.145" y="17.636156">12</text>
   </g>
  </g>
 </g>
 <a href="javascript:void(0);">
  <g id="buttons" fill-opacity="0" stroke-width=".79375">
   <circle cx="92.604" cy="20.373" r="13.229" opacity=".97" style="user-select: none;" draggable="false"/>
   <circle cx="111.92" cy="39.688" r="13.229" opacity=".97"/>
   <circle cx="119.06" cy="66.146" r="13.229" opacity=".97"/>
   <circle cx="111.92" cy="92.604" r="13.229" opacity=".97"/>
   <circle cx="92.604" cy="111.92" r="13.229" opacity=".97"/>
   <circle cx="66.146" cy="119.06" r="13.229" opacity=".97"/>
   <circle cx="39.688" cy="111.92" r="13.229" opacity=".97"/>
   <circle cx="20.373" cy="92.604" r="13.229" opacity=".97"/>
   <circle cx="13.229" cy="66.146" r="13.229" opacity=".97"/>
   <circle cx="20.373" cy="39.688" r="13.229" opacity=".97"/>
   <circle cx="39.688" cy="20.373" r="13.229" opacity=".97"/>
   <circle cx="66.146" cy="13.229" r="13.229" opacity=".97"/>
  </g>
 </a>
</svg>
