<svg width="100%" height="100%" version="1.1" viewBox="0 0 132.29 132.29" xmlns="http://www.w3.org/2000/svg">
 <defs>
  <mask id="Mask2">
   <g id="spinner2" transform="rotate(0 66.146 66.146)">
    <rect width="132.29" height="132.29"/>
    <circle cx="66.146" cy="13.229" r="13.229" fill="#fff"/>
    <path d="m66.146 66.146v-52.917" fill="none" stroke="#fff" stroke-width=".79375"/>
    <circle cx="66.146" cy="66.146" r="2.6458" fill="#fff" stroke="#fff" stroke-width=".79375"/>
   </g>
  </mask>
 </defs>
 <circle cx="66.146" cy="66.146" r="66.146" fill-opacity=".15261" opacity=".97"/>
 <g fill="none" font-family="sans-serif" letter-spacing="0px" stroke="#000" stroke-width=".26458px" word-spacing="0px">
  <g font-size="13.229px">
   <text x="89.134003" y="24.779905" style="line-height:125%" xml:space="preserve"><tspan x="89.134003" y="24.779905" fill="#000000" font-family="SansSerif" font-size="13.229px" stroke-width=".26458px">5</tspan></text>
   <text x="104.09802" y="44.09449" style="line-height:125%" xml:space="preserve"><tspan x="104.09802" y="44.09449" fill="#000000" font-family="SansSerif" font-size="13.229px" stroke-width=".26458px">10</tspan></text>
   <text x="111.0697" y="70.552826" style="line-height:125%" xml:space="preserve"><tspan x="111.0697" y="70.552826" fill="#000000" font-family="SansSerif" font-size="13.229px" stroke-width=".26458px">15</tspan></text>
   <text x="104.8282" y="97.004692" style="line-height:125%" xml:space="preserve"><tspan x="104.8282" y="97.004692" fill="#000000" font-family="SansSerif" font-size="13.229px" stroke-width=".26458px">20</tspan></text>
   <text x="85.513855" y="116.13841" style="line-height:125%" xml:space="preserve"><tspan x="85.513855" y="116.13841" fill="#000000" font-family="SansSerif" font-size="13.229px" stroke-width=".26458px">25</tspan></text>
   <text x="58.946049" y="123.46949" style="line-height:125%" xml:space="preserve"><tspan x="58.946049" y="123.46949" fill="#000000" font-family="SansSerif" font-size="13.229px" stroke-width=".26458px">30</tspan></text>
   <text x="32.488049" y="116.13841" style="line-height:125%" xml:space="preserve"><tspan x="32.488049" y="116.13841" fill="#000000" font-family="SansSerif" font-size="13.229px" stroke-width=".26458px">35</tspan></text>
   <text x="13.296437" y="97.011154" style="line-height:125%" xml:space="preserve"><tspan x="13.296437" y="97.011154" fill="#000000" font-family="SansSerif" font-size="13.229px" stroke-width=".26458px">40</tspan></text>
   <text x="6.1527767" y="70.546364" style="line-height:125%" xml:space="preserve"><tspan x="6.1527767" y="70.546364" fill="#000000" font-family="SansSerif" font-size="13.229px" stroke-width=".26458px">45</tspan></text>
   <text x="13.199545" y="44.09449" style="line-height:125%" xml:space="preserve"><tspan x="13.199545" y="44.09449" fill="#000000" font-family="SansSerif" font-size="13.229px" stroke-width=".26458px">50</tspan></text>
   <text x="32.661827" y="24.779905" style="line-height:125%" xml:space="preserve"><tspan x="32.661827" y="24.779905" fill="#000000" font-family="SansSerif" font-size="13.229px" stroke-width=".26458px">55</tspan></text>
   <text x="58.894371" y="17.636156" style="line-height:125%" xml:space="preserve"><tspan x="58.894371" y="17.636156" fill="#000000" font-family="SansSerif" font-size="13.229px" stroke-width=".26458px">00</tspan></text>
  </g>
 </g>
 <g mask="url(#Mask2)">
  <circle cx="66.146" cy="66.146" r="66.146" fill="#0075ff" opacity=".97"/>
  <g fill="#fff" font-family="sans-serif" letter-spacing="0px" stroke-width=".26458px" word-spacing="0px">
   <g font-size="13.229px">
   <text x="89.134003" y="24.779905" style="line-height:125%" xml:space="preserve"><tspan x="89.134003" y="24.779905" fill="#ffffff" font-family="SansSerif" font-size="13.229px" stroke-width=".26458px">5</tspan></text>
   <text x="104.09802" y="44.09449" style="line-height:125%" xml:space="preserve"><tspan x="104.09802" y="44.09449" fill="#ffffff" font-family="SansSerif" font-size="13.229px" stroke-width=".26458px">10</tspan></text>
   <text x="111.0697" y="70.552826" style="line-height:125%" xml:space="preserve"><tspan x="111.0697" y="70.552826" fill="#ffffff" font-family="SansSerif" font-size="13.229px" stroke-width=".26458px">15</tspan></text>
   <text x="104.8282" y="97.004692" style="line-height:125%" xml:space="preserve"><tspan x="104.8282" y="97.004692" fill="#ffffff" font-family="SansSerif" font-size="13.229px" stroke-width=".26458px">20</tspan></text>
   <text x="85.513855" y="116.13841" style="line-height:125%" xml:space="preserve"><tspan x="85.513855" y="116.13841" fill="#ffffff" font-family="SansSerif" font-size="13.229px" stroke-width=".26458px">25</tspan></text>
   <text x="58.946049" y="123.46949" style="line-height:125%" xml:space="preserve"><tspan x="58.946049" y="123.46949" fill="#ffffff" font-family="SansSerif" font-size="13.229px" stroke-width=".26458px">30</tspan></text>
   <text x="32.488049" y="116.13841" style="line-height:125%" xml:space="preserve"><tspan x="32.488049" y="116.13841" fill="#ffffff" font-family="SansSerif" font-size="13.229px" stroke-width=".26458px">35</tspan></text>
   <text x="13.296437" y="97.011154" style="line-height:125%" xml:space="preserve"><tspan x="13.296437" y="97.011154" fill="#ffffff" font-family="SansSerif" font-size="13.229px" stroke-width=".26458px">40</tspan></text>
   <text x="6.1527767" y="70.546364" style="line-height:125%" xml:space="preserve"><tspan x="6.1527767" y="70.546364" fill="#ffffff" font-family="SansSerif" font-size="13.229px" stroke-width=".26458px">45</tspan></text>
   <text x="13.199545" y="44.09449" style="line-height:125%" xml:space="preserve"><tspan x="13.199545" y="44.09449" fill="#ffffff" font-family="SansSerif" font-size="13.229px" stroke-width=".26458px">50</tspan></text>
   <text x="32.661827" y="24.779905" style="line-height:125%" xml:space="preserve"><tspan x="32.661827" y="24.779905" fill="#ffffff" font-family="SansSerif" font-size="13.229px" stroke-width=".26458px">55</tspan></text>
   <text x="58.894371" y="17.636156" style="line-height:125%" xml:space="preserve"><tspan x="58.894371" y="17.636156" fill="#ffffff" font-family="SansSerif" font-size="13.229px" stroke-width=".26458px">00</tspan></text>
   </g>
  </g>
 </g>
 <g id="buttons2">
  <path transform="scale(.26458)" d="m249.53 0a250 250 0 0 0-249.53 250 250 250 0 0 0 250 250 250 250 0 0 0 250-250 250 250 0 0 0-250-250 250 250 0 0 0-0.47461 0zm0.47461 100a150 150 0 0 1 150 150 150 150 0 0 1-150 150 150 150 0 0 1-150-150 150 150 0 0 1 150-150z" fill-opacity="0" opacity=".97" stroke-width="3"/>
 </g>
</svg>
