<svg width="100%" height="100%" version="1.1" viewBox="0 0 132.29 132.29" xmlns="http://www.w3.org/2000/svg">
 <defs>
  <mask id="Mask2">
   <g id="spinner2" transform="rotate(0 66.146 66.146)">
    <rect width="132.29" height="132.29"/>
    <circle cx="66.146" cy="13.229" r="13.229" fill="#fff"/>
    <path d="m66.146 66.146v-52.917" fill="none" stroke="#fff" stroke-width=".79375"/>
    <circle cx="66.146" cy="66.146" r="2.6458" fill="#fff" stroke="#fff" stroke-width=".79375"/>
   </g>
  </mask>
 </defs>
 <circle cx="66.146" cy="66.146" r="66.146" fill-opacity=".15261" opacity=".97"/>
 <g fill="none" font-family="Arial" letter-spacing="0px" stroke="#000000" stroke-width=".26458px" word-spacing="0px">
   <g font-size="13.229px" fill="#000000" text-anchor="middle" style="line-height:125%" xml:space="preserve">
    <text x="92.145" y="24.779905">05</text>
    <text x="112.145" y="44.09449">10</text>
    <text x="119.145" y="70.552826">15</text>
    <text x="112.145" y="97.004692">20</text>
    <text x="92.145" y="116.13841">25</text>
	<text x="66.145" y="123.46949">30</text>
    <text x="40.145" y="116.13841">35</text>
    <text x="20.145" y="97.011154">40</text>
    <text x="13.145" y="70.546364">45</text>
    <text x="20.145" y="44.09449">50</text>
    <text x="40.145" y="24.779905">55</text>
	<text x="66.145" y="17.636156">00</text>
   </g>
  </g>
 <g mask="url(#Mask2)">
  <circle cx="66.146" cy="66.146" r="66.146" fill="#0075ff" opacity=".97"/>
  <g fill="none" font-family="Arial" letter-spacing="0px" stroke="#FFFFFF" stroke-width=".26458px" word-spacing="0px">
   <g font-size="13.229px" fill="#FFFFFF" text-anchor="middle" style="line-height:125%" xml:space="preserve">
    <text x="92.145" y="24.779905">05</text>
    <text x="112.145" y="44.09449">10</text>
    <text x="119.145" y="70.552826">15</text>
    <text x="112.145" y="97.004692">20</text>
    <text x="92.145" y="116.13841">25</text>
	<text x="66.145" y="123.46949">30</text>
    <text x="40.145" y="116.13841">35</text>
    <text x="20.145" y="97.011154">40</text>
    <text x="13.145" y="70.546364">45</text>
    <text x="20.145" y="44.09449">50</text>
    <text x="40.145" y="24.779905">55</text>
	<text x="66.145" y="17.636156">00</text>
   </g>
  </g>
 </g>
 <g id="buttons2">
  <a href="javascript:void(0);">
	<path transform="scale(.26458)" d="m249.53 0a250 250 0 0 0-249.53 250 250 250 0 0 0 250 250 250 250 0 0 0 250-250 250 250 0 0 0-250-250 250 250 0 0 0-0.47461 0zm0.47461 100a150 150 0 0 1 150 150 150 150 0 0 1-150 150 150 150 0 0 1-150-150 150 150 0 0 1 150-150z" fill-opacity="0" opacity="1" stroke-width="3"/>
  </a>
 </g>
</svg>
